{"glyphs":{"0":{"ha":925,"x_min":0,"x_max":810,"o":"m 115 694 l 232 694 l 232 810 l 579 810 l 579 694 l 694 694 l 694 579 l 810 579 l 810 232 l 694 232 l 694 115 l 579 115 l 579 0 l 232 0 l 232 115 l 115 115 l 115 232 l 0 232 l 0 579 l 115 579 l 115 694 z m 579 579 l 463 579 l 463 694 l 347 694 l 347 579 l 232 579 l 232 232 l 347 232 l 347 115 l 463 115 l 463 232 l 579 232 l 579 579 z "},"1":{"ha":578,"x_min":0,"x_max":463,"o":"m 0 694 l 115 694 l 115 810 l 347 810 l 347 115 l 463 115 l 463 0 l 0 0 l 0 115 l 115 115 l 115 579 l 0 579 l 0 694 z "},"2":{"ha":694,"x_min":0,"x_max":579,"o":"m 0 694 l 115 694 l 115 810 l 463 810 l 463 694 l 579 694 l 579 463 l 463 463 l 463 347 l 347 347 l 347 232 l 232 232 l 232 115 l 463 115 l 463 232 l 579 232 l 579 0 l 0 0 l 0 232 l 115 232 l 115 347 l 232 347 l 232 463 l 347 463 l 347 694 l 115 694 l 115 579 l 0 579 l 0 694 z "},"3":{"ha":694,"x_min":0,"x_max":579,"o":"m 0 694 l 115 694 l 115 810 l 463 810 l 463 694 l 579 694 l 579 463 l 463 463 l 463 232 l 579 232 l 579 -115 l 463 -115 l 463 -232 l 115 -232 l 115 -115 l 0 -115 l 0 0 l 115 0 l 115 -115 l 347 -115 l 347 232 l 115 232 l 115 347 l 232 347 l 232 463 l 347 463 l 347 694 l 115 694 l 115 579 l 0 579 l 0 694 z "},"4":{"ha":810,"x_min":0,"x_max":694,"o":"m 232 926 l 347 926 l 347 1042 l 579 1042 l 579 810 l 347 810 l 347 694 l 232 694 l 232 347 l 347 347 l 347 579 l 579 579 l 579 347 l 694 347 l 694 232 l 579 232 l 579 0 l 347 0 l 347 232 l 0 232 l 0 694 l 115 694 l 115 810 l 232 810 l 232 926 z "},"5":{"ha":694,"x_min":0,"x_max":579,"o":"m 347 347 l 0 347 l 0 810 l 579 810 l 579 694 l 232 694 l 232 463 l 463 463 l 463 347 l 579 347 l 579 -115 l 463 -115 l 463 -232 l 115 -232 l 115 -115 l 0 -115 l 0 0 l 115 0 l 115 -115 l 347 -115 l 347 347 z "},"6":{"ha":810,"x_min":0,"x_max":694,"o":"m 232 926 l 347 926 l 347 1042 l 579 1042 l 579 926 l 463 926 l 463 810 l 347 810 l 347 694 l 579 694 l 579 579 l 694 579 l 694 115 l 579 115 l 579 0 l 115 0 l 115 115 l 0 115 l 0 694 l 115 694 l 115 810 l 232 810 l 232 926 z m 232 115 l 463 115 l 463 579 l 232 579 l 232 115 z "},"7":{"ha":810,"x_min":0,"x_max":694,"o":"m 115 579 l 0 579 l 0 810 l 694 810 l 694 463 l 579 463 l 579 347 l 463 347 l 463 115 l 347 115 l 347 -232 l 115 -232 l 115 115 l 232 115 l 232 347 l 347 347 l 347 463 l 463 463 l 463 694 l 115 694 l 115 579 z "},"8":{"ha":810,"x_min":0,"x_max":694,"o":"m 0 926 l 115 926 l 115 1042 l 579 1042 l 579 926 l 694 926 l 694 579 l 579 579 l 579 463 l 694 463 l 694 115 l 579 115 l 579 0 l 115 0 l 115 115 l 0 115 l 0 463 l 115 463 l 115 579 l 0 579 l 0 926 z m 232 579 l 463 579 l 463 926 l 232 926 l 232 579 z m 232 115 l 463 115 l 463 463 l 232 463 l 232 115 z "},"9":{"ha":810,"x_min":0,"x_max":694,"o":"m 0 694 l 115 694 l 115 810 l 579 810 l 579 694 l 694 694 l 694 0 l 579 0 l 579 -115 l 463 -115 l 463 -232 l 115 -232 l 115 -115 l 347 -115 l 347 0 l 463 0 l 463 115 l 115 115 l 115 232 l 0 232 l 0 694 z m 232 232 l 463 232 l 463 694 l 232 694 l 232 232 z "}," ":{"ha":347,"x_min":null,"x_max":null,"o":""},"!":{"ha":347,"x_min":0,"x_max":232,"o":"m 232 0 l 0 0 l 0 232 l 232 232 l 232 0 z m 115 463 l 0 463 l 0 1042 l 232 1042 l 232 347 l 115 347 l 115 463 z "},"\"":{"ha":463,"x_min":0,"x_max":347,"o":"m 347 926 l 232 926 l 232 1157 l 347 1157 l 347 926 z m 115 926 l 0 926 l 0 1157 l 115 1157 l 115 926 z "},"#":{"ha":925,"x_min":0,"x_max":810,"o":"m 0 810 l 115 810 l 115 1042 l 347 1042 l 347 810 l 463 810 l 463 1042 l 694 1042 l 694 810 l 810 810 l 810 694 l 694 694 l 694 347 l 810 347 l 810 232 l 694 232 l 694 0 l 463 0 l 463 232 l 347 232 l 347 0 l 115 0 l 115 232 l 0 232 l 0 347 l 115 347 l 115 694 l 0 694 l 0 810 z m 347 347 l 463 347 l 463 694 l 347 694 l 347 347 z "},"$":{"ha":810,"x_min":0,"x_max":694,"o":"m 115 1042 l 347 1042 l 347 1157 l 463 1157 l 463 1042 l 579 1042 l 579 926 l 694 926 l 694 810 l 579 810 l 579 926 l 463 926 l 463 579 l 579 579 l 579 463 l 694 463 l 694 115 l 579 115 l 579 0 l 463 0 l 463 -115 l 347 -115 l 347 0 l 115 0 l 115 115 l 0 115 l 0 347 l 232 347 l 232 115 l 347 115 l 347 463 l 115 463 l 115 579 l 0 579 l 0 926 l 115 926 l 115 1042 z m 232 579 l 347 579 l 347 926 l 232 926 l 232 579 z m 463 115 l 579 115 l 579 463 l 463 463 l 463 115 z "},"%":{"ha":810,"x_min":0,"x_max":694,"o":"m 463 0 l 463 232 l 694 232 l 694 0 l 463 0 z m 347 694 l 463 694 l 463 810 l 694 810 l 694 694 l 579 694 l 579 463 l 463 463 l 463 347 l 347 347 l 347 115 l 232 115 l 232 0 l 0 0 l 0 115 l 115 115 l 115 347 l 232 347 l 232 463 l 347 463 l 347 694 z m 232 579 l 0 579 l 0 810 l 232 810 l 232 579 z "},"&":{"ha":925,"x_min":0,"x_max":810,"o":"m 115 925 l 231 925 l 231 1042 l 579 1042 l 579 926 l 232 926 l 232 810 l 347 810 l 347 694 l 463 694 l 463 579 l 579 579 l 579 694 l 810 694 l 810 579 l 694 579 l 694 463 l 579 463 l 579 347 l 694 347 l 694 115 l 810 115 l 810 0 l 579 0 l 579 115 l 463 115 l 463 0 l 115 0 l 115 115 l 0 115 l 0 463 l 115 463 l 115 579 l 232 579 l 232 694 l 115 694 l 115 925 z m 463 347 l 347 347 l 347 463 l 232 463 l 232 115 l 463 115 l 463 347 z "},"'":{"ha":231,"x_min":0,"x_max":115,"o":"m 115 926 l 0 926 l 0 1157 l 115 1157 l 115 926 z "},"(":{"ha":463,"x_min":0,"x_max":347,"o":"m 115 1042 l 232 1042 l 232 1157 l 347 1157 l 347 1042 l 232 1042 l 232 115 l 347 115 l 347 0 l 232 0 l 232 115 l 115 115 l 115 232 l 0 232 l 0 810 l 115 810 l 115 1042 z "},")":{"ha":463,"x_min":0,"x_max":347,"o":"m 115 1042 l 0 1042 l 0 1157 l 115 1157 l 115 1042 l 232 1042 l 232 926 l 347 926 l 347 347 l 232 347 l 232 115 l 115 115 l 115 0 l 0 0 l 0 115 l 115 115 l 115 1042 z "},"*":{"ha":463,"x_min":0,"x_max":347,"o":"m 115 1042 l 0 1042 l 0 1157 l 115 1157 l 115 1042 l 232 1042 l 232 1157 l 347 1157 l 347 1042 l 232 1042 l 232 926 l 347 926 l 347 810 l 232 810 l 232 926 l 115 926 l 115 810 l 0 810 l 0 926 l 115 926 l 115 1042 z "},"+":{"ha":694,"x_min":0,"x_max":579,"o":"m 0 463 l 232 463 l 232 694 l 347 694 l 347 463 l 579 463 l 579 347 l 347 347 l 347 115 l 232 115 l 232 347 l 0 347 l 0 463 z "},",":{"ha":347,"x_min":0,"x_max":232,"o":"m 115 115 l 0 115 l 0 232 l 232 232 l 232 0 l 115 0 l 115 -115 l 0 -115 l 0 0 l 115 0 l 115 115 z "},"-":{"ha":578,"x_min":0,"x_max":463,"o":"m 463 347 l 0 347 l 0 463 l 463 463 l 463 347 z "},".":{"ha":347,"x_min":0,"x_max":232,"o":"m 232 0 l 0 0 l 0 232 l 232 232 l 232 0 z "},"/":{"ha":810,"x_min":0,"x_max":694,"o":"m 347 810 l 463 810 l 463 1042 l 694 1042 l 694 810 l 579 810 l 579 579 l 463 579 l 463 463 l 347 463 l 347 232 l 232 232 l 232 0 l 0 0 l 0 232 l 115 232 l 115 463 l 232 463 l 232 579 l 347 579 l 347 810 z "},":":{"ha":347,"x_min":0,"x_max":232,"o":"m 232 0 l 0 0 l 0 232 l 232 232 l 232 0 z m 232 463 l 0 463 l 0 694 l 232 694 l 232 463 z "},";":{"ha":347,"x_min":0,"x_max":232,"o":"m 115 0 l 0 0 l 0 115 l 232 115 l 232 -115 l 115 -115 l 115 -232 l 0 -232 l 0 -115 l 115 -115 l 115 0 z m 232 232 l 0 232 l 0 463 l 232 463 l 232 232 z "},"<":{"ha":694,"x_min":0,"x_max":579,"o":"m 232 694 l 347 694 l 347 810 l 579 810 l 579 694 l 463 694 l 463 579 l 347 579 l 347 463 l 232 463 l 232 347 l 347 347 l 347 232 l 463 232 l 463 115 l 579 115 l 579 0 l 347 0 l 347 115 l 232 115 l 232 232 l 115 232 l 115 347 l 0 347 l 0 463 l 115 463 l 115 579 l 232 579 l 232 694 z "},"=":{"ha":694,"x_min":0,"x_max":579,"o":"m 579 232 l 0 232 l 0 347 l 579 347 l 579 232 z m 0 463 l 0 579 l 579 579 l 579 463 l 0 463 z "},">":{"ha":694,"x_min":0,"x_max":579,"o":"m 115 694 l 0 694 l 0 810 l 232 810 l 232 694 l 347 694 l 347 579 l 463 579 l 463 463 l 579 463 l 579 347 l 463 347 l 463 232 l 347 232 l 347 115 l 232 115 l 232 0 l 0 0 l 0 115 l 115 115 l 115 232 l 232 232 l 232 347 l 347 347 l 347 463 l 232 463 l 232 579 l 115 579 l 115 694 z "},"?":{"ha":694,"x_min":0,"x_max":579,"o":"m 347 0 l 115 0 l 115 232 l 347 232 l 347 0 z m 115 810 l 0 810 l 0 1042 l 463 1042 l 463 926 l 579 926 l 579 694 l 463 694 l 463 579 l 347 579 l 347 347 l 115 347 l 115 579 l 232 579 l 232 694 l 347 694 l 347 926 l 115 926 l 115 810 z "},"@":{"ha":925,"x_min":0,"x_max":810,"o":"m 115 694 l 232 694 l 232 810 l 694 810 l 694 694 l 810 694 l 810 347 l 694 347 l 694 232 l 347 232 l 347 347 l 232 347 l 232 463 l 347 463 l 347 579 l 579 579 l 579 347 l 694 347 l 694 694 l 232 694 l 232 579 l 115 579 l 115 232 l 232 232 l 232 115 l 694 115 l 694 0 l 232 0 l 232 115 l 115 115 l 115 232 l 0 232 l 0 579 l 115 579 l 115 694 z m 347 347 l 463 347 l 463 463 l 347 463 l 347 347 z "},"A":{"ha":925,"x_min":0,"x_max":810,"o":"m 232 926 l 347 926 l 347 1042 l 579 1042 l 579 926 l 694 926 l 694 694 l 810 694 l 810 0 l 579 0 l 579 347 l 232 347 l 232 0 l 0 0 l 0 579 l 115 579 l 115 810 l 232 810 l 232 926 z m 579 694 l 463 694 l 463 926 l 347 926 l 347 810 l 232 810 l 232 463 l 579 463 l 579 694 z "},"B":{"ha":810,"x_min":0,"x_max":694,"o":"m 579 0 l 0 0 l 0 1042 l 579 1042 l 579 926 l 694 926 l 694 579 l 579 579 l 579 463 l 694 463 l 694 115 l 579 115 l 579 0 z m 347 694 l 463 694 l 463 926 l 232 926 l 232 579 l 347 579 l 347 694 z m 232 115 l 463 115 l 463 463 l 232 463 l 232 115 z "},"C":{"ha":810,"x_min":0,"x_max":694,"o":"m 0 926 l 115 926 l 115 1042 l 579 1042 l 579 926 l 694 926 l 694 810 l 463 810 l 463 926 l 232 926 l 232 115 l 463 115 l 463 232 l 694 232 l 694 115 l 579 115 l 579 0 l 115 0 l 115 115 l 0 115 l 0 926 z "},"D":{"ha":810,"x_min":0,"x_max":694,"o":"m 463 0 l 0 0 l 0 1042 l 579 1042 l 579 926 l 694 926 l 694 232 l 579 232 l 579 115 l 463 115 l 463 0 z m 347 232 l 463 232 l 463 926 l 232 926 l 232 115 l 347 115 l 347 232 z "},"E":{"ha":694,"x_min":0,"x_max":579,"o":"m 579 0 l 0 0 l 0 1042 l 579 1042 l 579 810 l 463 810 l 463 926 l 232 926 l 232 579 l 463 579 l 463 463 l 232 463 l 232 115 l 579 115 l 579 0 z "},"F":{"ha":694,"x_min":0,"x_max":579,"o":"m 232 0 l 0 0 l 0 1042 l 579 1042 l 579 810 l 463 810 l 463 926 l 232 926 l 232 579 l 463 579 l 463 463 l 232 463 l 232 0 z "},"G":{"ha":810,"x_min":0,"x_max":694,"o":"m 0 926 l 115 926 l 115 1042 l 579 1042 l 579 926 l 694 926 l 694 810 l 463 810 l 463 926 l 232 926 l 232 115 l 463 115 l 463 463 l 347 463 l 347 579 l 694 579 l 694 0 l 115 0 l 115 115 l 0 115 l 0 926 z "},"H":{"ha":925,"x_min":0,"x_max":810,"o":"m 232 0 l 0 0 l 0 1042 l 232 1042 l 232 579 l 579 579 l 579 1042 l 810 1042 l 810 0 l 579 0 l 579 463 l 232 463 l 232 0 z "},"I":{"ha":578,"x_min":0,"x_max":463,"o":"m 115 926 l 0 926 l 0 1042 l 463 1042 l 463 926 l 347 926 l 347 115 l 463 115 l 463 0 l 0 0 l 0 115 l 115 115 l 115 926 z "},"J":{"ha":810,"x_min":0,"x_max":694,"o":"m 232 810 l 115 810 l 115 1042 l 694 1042 l 694 115 l 579 115 l 579 0 l 115 0 l 115 115 l 0 115 l 0 232 l 232 232 l 232 115 l 463 115 l 463 926 l 232 926 l 232 810 z "},"K":{"ha":810,"x_min":0,"x_max":694,"o":"m 232 0 l 0 0 l 0 1042 l 232 1042 l 232 694 l 347 694 l 347 810 l 463 810 l 463 926 l 579 926 l 579 1042 l 694 1042 l 694 810 l 579 810 l 579 694 l 463 694 l 463 579 l 347 579 l 347 463 l 463 463 l 463 347 l 579 347 l 579 232 l 694 232 l 694 0 l 463 0 l 463 232 l 347 232 l 347 463 l 232 463 l 232 0 z "},"L":{"ha":694,"x_min":0,"x_max":579,"o":"m 579 0 l 0 0 l 0 1042 l 232 1042 l 232 115 l 463 115 l 463 232 l 579 232 l 579 0 z "},"M":{"ha":1157,"x_min":0,"x_max":1042,"o":"m 115 926 l 0 926 l 0 1042 l 232 1042 l 232 926 l 347 926 l 347 810 l 463 810 l 463 579 l 579 579 l 579 810 l 694 810 l 694 926 l 810 926 l 810 1042 l 1042 1042 l 1042 694 l 926 694 l 926 347 l 1042 347 l 1042 0 l 810 0 l 810 694 l 694 694 l 694 463 l 579 463 l 579 347 l 463 347 l 463 463 l 347 463 l 347 694 l 232 694 l 232 0 l 0 0 l 0 347 l 115 347 l 115 926 z "},"N":{"ha":925,"x_min":0,"x_max":810,"o":"m 232 0 l 0 0 l 0 1042 l 232 1042 l 232 810 l 347 810 l 347 694 l 463 694 l 463 579 l 579 579 l 579 1042 l 810 1042 l 810 0 l 694 0 l 694 115 l 579 115 l 579 347 l 463 347 l 463 463 l 347 463 l 347 579 l 232 579 l 232 0 z "},"O":{"ha":925,"x_min":0,"x_max":810,"o":"m 115 926 l 232 926 l 232 1042 l 694 1042 l 694 926 l 810 926 l 810 232 l 694 232 l 694 115 l 579 115 l 579 0 l 115 0 l 115 115 l 0 115 l 0 810 l 115 810 l 115 926 z m 579 810 l 463 810 l 463 926 l 232 926 l 232 232 l 347 232 l 347 115 l 579 115 l 579 810 z "},"P":{"ha":810,"x_min":0,"x_max":694,"o":"m 232 0 l 0 0 l 0 1042 l 579 1042 l 579 926 l 694 926 l 694 463 l 579 463 l 579 347 l 232 347 l 232 0 z m 232 463 l 463 463 l 463 926 l 232 926 l 232 463 z "},"Q":{"ha":925,"x_min":0,"x_max":810,"o":"m 115 926 l 232 926 l 232 1042 l 694 1042 l 694 926 l 810 926 l 810 232 l 694 232 l 694 115 l 579 115 l 579 0 l 810 0 l 810 -115 l 347 -115 l 347 0 l 115 0 l 115 115 l 0 115 l 0 810 l 115 810 l 115 926 z m 579 810 l 463 810 l 463 926 l 232 926 l 232 232 l 347 232 l 347 115 l 579 115 l 579 810 z "},"R":{"ha":810,"x_min":0,"x_max":694,"o":"m 232 0 l 0 0 l 0 1042 l 579 1042 l 579 926 l 694 926 l 694 579 l 579 579 l 579 463 l 463 463 l 463 347 l 579 347 l 579 232 l 694 232 l 694 0 l 463 0 l 463 115 l 347 115 l 347 347 l 232 347 l 232 0 z m 232 579 l 463 579 l 463 926 l 232 926 l 232 579 z "},"S":{"ha":810,"x_min":0,"x_max":694,"o":"m 0 926 l 115 926 l 115 1042 l 579 1042 l 579 926 l 694 926 l 694 810 l 463 810 l 463 926 l 232 926 l 232 810 l 347 810 l 347 694 l 463 694 l 463 579 l 579 579 l 579 463 l 694 463 l 694 115 l 579 115 l 579 0 l 115 0 l 115 115 l 0 115 l 0 232 l 232 232 l 232 115 l 463 115 l 463 347 l 347 347 l 347 463 l 232 463 l 232 579 l 115 579 l 115 694 l 0 694 l 0 926 z "},"T":{"ha":810,"x_min":0,"x_max":694,"o":"m 115 810 l 0 810 l 0 1042 l 694 1042 l 694 926 l 463 926 l 463 0 l 232 0 l 232 926 l 115 926 l 115 810 z "},"U":{"ha":810,"x_min":0,"x_max":694,"o":"m 115 115 l 0 115 l 0 1042 l 232 1042 l 232 115 l 463 115 l 463 1042 l 694 1042 l 694 0 l 579 0 l 579 115 l 463 115 l 463 0 l 115 0 l 115 115 z "},"V":{"ha":925,"x_min":0,"x_max":810,"o":"m 115 579 l 0 579 l 0 1042 l 232 1042 l 232 579 l 347 579 l 347 232 l 463 232 l 463 463 l 579 463 l 579 1042 l 810 1042 l 810 579 l 694 579 l 694 347 l 579 347 l 579 115 l 463 115 l 463 0 l 347 0 l 347 115 l 232 115 l 232 347 l 115 347 l 115 579 z "},"W":{"ha":1157,"x_min":0,"x_max":1042,"o":"m 115 347 l 0 347 l 0 1042 l 232 1042 l 232 347 l 347 347 l 347 579 l 463 579 l 463 810 l 579 810 l 579 579 l 694 579 l 694 347 l 810 347 l 810 926 l 694 926 l 694 1042 l 926 1042 l 926 926 l 1042 926 l 1042 463 l 926 463 l 926 232 l 810 232 l 810 0 l 579 0 l 579 347 l 463 347 l 463 232 l 347 232 l 347 0 l 115 0 l 115 347 z "},"X":{"ha":925,"x_min":0,"x_max":810,"o":"m 115 810 l 0 810 l 0 1042 l 232 1042 l 232 810 l 347 810 l 347 579 l 463 579 l 463 694 l 579 694 l 579 1042 l 810 1042 l 810 810 l 694 810 l 694 694 l 579 694 l 579 463 l 694 463 l 694 232 l 810 232 l 810 0 l 579 0 l 579 232 l 463 232 l 463 463 l 347 463 l 347 347 l 232 347 l 232 0 l 0 0 l 0 232 l 115 232 l 115 347 l 232 347 l 232 579 l 115 579 l 115 810 z "},"Y":{"ha":810,"x_min":0,"x_max":694,"o":"m 115 694 l 0 694 l 0 1042 l 232 1042 l 232 694 l 347 694 l 347 579 l 463 579 l 463 1042 l 694 1042 l 694 694 l 579 694 l 579 463 l 463 463 l 463 0 l 232 0 l 232 463 l 115 463 l 115 694 z "},"Z":{"ha":694,"x_min":0,"x_max":579,"o":"m 115 810 l 0 810 l 0 1042 l 579 1042 l 579 810 l 463 810 l 463 579 l 347 579 l 347 347 l 232 347 l 232 115 l 463 115 l 463 232 l 579 232 l 579 0 l 0 0 l 0 347 l 115 347 l 115 579 l 232 579 l 232 694 l 347 694 l 347 926 l 115 926 l 115 810 z "},"[":{"ha":463,"x_min":0,"x_max":347,"o":"m 347 -232 l 0 -232 l 0 1157 l 347 1157 l 347 1042 l 232 1042 l 232 -115 l 347 -115 l 347 -232 z "},"\\":{"ha":578,"x_min":0,"x_max":463,"o":"m 115 694 l 0 694 l 0 1042 l 115 1042 l 115 810 l 232 810 l 232 579 l 347 579 l 347 347 l 463 347 l 463 0 l 347 0 l 347 232 l 232 232 l 232 463 l 115 463 l 115 694 z "},"]":{"ha":463,"x_min":0,"x_max":347,"o":"m 115 1042 l 0 1042 l 0 1157 l 347 1157 l 347 -232 l 0 -232 l 0 -115 l 115 -115 l 115 1042 z "},"^":{"ha":1272,"x_min":0,"x_max":1157,"o":"m 0 1042 l 115 1042 l 115 1157 l 463 1157 l 463 1042 l 810 1042 l 810 926 l 1042 926 l 1042 1042 l 1157 1042 l 1157 926 l 1042 926 l 1042 810 l 810 810 l 810 926 l 694 926 l 694 810 l 579 810 l 579 694 l 926 694 l 926 579 l 1042 579 l 1042 232 l 926 232 l 926 115 l 694 115 l 694 0 l 579 0 l 579 -115 l 463 -115 l 463 -232 l 232 -232 l 232 0 l 115 0 l 115 232 l 0 232 l 0 694 l 115 694 l 115 810 l 347 810 l 347 694 l 463 694 l 463 810 l 579 810 l 579 926 l 463 926 l 463 1042 l 232 1042 l 232 926 l 0 926 l 0 1042 z m 463 347 l 579 347 l 579 579 l 347 579 l 347 -115 l 463 -115 l 463 347 z "},"_":{"ha":694,"x_min":0,"x_max":579,"o":"m 579 -115 l 0 -115 l 0 0 l 579 0 l 579 -115 z "},"`":{"ha":925,"x_min":0,"x_max":810,"o":"m 579 694 l 694 694 l 694 810 l 810 810 l 810 0 l 579 0 l 579 694 z m 115 1042 l 232 1042 l 232 1157 l 810 1157 l 810 926 l 579 926 l 579 1042 l 347 1042 l 347 810 l 463 810 l 463 694 l 347 694 l 347 0 l 115 0 l 115 694 l 0 694 l 0 810 l 115 810 l 115 1042 z "},"a":{"ha":810,"x_min":0,"x_max":694,"o":"m 115 694 l 232 694 l 232 810 l 579 810 l 579 694 l 694 694 l 694 0 l 579 0 l 579 115 l 463 115 l 463 0 l 115 0 l 115 115 l 0 115 l 0 347 l 115 347 l 115 463 l 463 463 l 463 694 l 232 694 l 232 579 l 115 579 l 115 694 z m 347 232 l 463 232 l 463 347 l 232 347 l 232 115 l 347 115 l 347 232 z "},"b":{"ha":810,"x_min":0,"x_max":694,"o":"m 0 1042 l 115 1042 l 115 1157 l 232 1157 l 232 694 l 347 694 l 347 810 l 579 810 l 579 694 l 694 694 l 694 115 l 579 115 l 579 0 l 115 0 l 115 115 l 0 115 l 0 1042 z m 232 115 l 463 115 l 463 694 l 347 694 l 347 579 l 232 579 l 232 115 z "},"c":{"ha":694,"x_min":0,"x_max":579,"o":"m 0 694 l 115 694 l 115 810 l 463 810 l 463 694 l 579 694 l 579 579 l 463 579 l 463 694 l 232 694 l 232 115 l 463 115 l 463 232 l 579 232 l 579 115 l 463 115 l 463 0 l 115 0 l 115 115 l 0 115 l 0 694 z "},"d":{"ha":810,"x_min":0,"x_max":694,"o":"m 579 1042 l 579 1157 l 694 1157 l 694 0 l 115 0 l 115 115 l 0 115 l 0 694 l 115 694 l 115 810 l 463 810 l 463 1042 l 579 1042 z m 232 115 l 463 115 l 463 694 l 232 694 l 232 115 z "},"e":{"ha":810,"x_min":0,"x_max":694,"o":"m 0 694 l 115 694 l 115 810 l 579 810 l 579 694 l 694 694 l 694 347 l 232 347 l 232 115 l 579 115 l 579 232 l 694 232 l 694 115 l 579 115 l 579 0 l 115 0 l 115 115 l 0 115 l 0 694 z m 232 463 l 463 463 l 463 694 l 232 694 l 232 463 z "},"f":{"ha":578,"x_min":0,"x_max":463,"o":"m 115 1042 l 232 1042 l 232 1157 l 463 1157 l 463 1042 l 347 1042 l 347 810 l 463 810 l 463 694 l 347 694 l 347 0 l 115 0 l 115 694 l 0 694 l 0 810 l 115 810 l 115 1042 z "},"g":{"ha":810,"x_min":0,"x_max":694,"o":"m 0 694 l 115 694 l 115 810 l 694 810 l 694 463 l 579 463 l 579 347 l 232 347 l 232 232 l 579 232 l 579 115 l 694 115 l 694 -115 l 579 -115 l 579 -232 l 115 -232 l 115 -115 l 0 -115 l 0 0 l 115 0 l 115 -115 l 463 -115 l 463 115 l 0 115 l 0 347 l 115 347 l 115 463 l 0 463 l 0 694 z m 232 463 l 463 463 l 463 694 l 232 694 l 232 463 z "},"h":{"ha":810,"x_min":0,"x_max":694,"o":"m 0 1042 l 115 1042 l 115 1157 l 232 1157 l 232 810 l 579 810 l 579 694 l 694 694 l 694 0 l 463 0 l 463 694 l 232 694 l 232 0 l 0 0 l 0 1042 z "},"i":{"ha":347,"x_min":0,"x_max":232,"o":"m 0 694 l 115 694 l 115 810 l 232 810 l 232 0 l 0 0 l 0 694 z m 232 1042 l 0 1042 l 0 1157 l 232 1157 l 232 1042 z "},"j":{"ha":347,"x_min":-232,"x_max":232,"o":"m 0 694 l 115 694 l 115 810 l 232 810 l 232 -115 l 115 -115 l 115 -232 l -232 -232 l -232 -115 l 0 -115 l 0 694 z m 232 1042 l 0 1042 l 0 1157 l 232 1157 l 232 1042 z "},"k":{"ha":810,"x_min":0,"x_max":694,"o":"m 0 1042 l 115 1042 l 115 1157 l 232 1157 l 232 579 l 347 579 l 347 694 l 463 694 l 463 810 l 694 810 l 694 694 l 579 694 l 579 579 l 463 579 l 463 463 l 347 463 l 347 347 l 579 347 l 579 232 l 694 232 l 694 0 l 463 0 l 463 115 l 347 115 l 347 232 l 232 232 l 232 0 l 0 0 l 0 1042 z "},"l":{"ha":347,"x_min":0,"x_max":232,"o":"m 0 1042 l 115 1042 l 115 1157 l 232 1157 l 232 0 l 0 0 l 0 1042 z "},"m":{"ha":1042,"x_min":0,"x_max":926,"o":"m 232 694 l 232 810 l 463 810 l 463 694 l 579 694 l 579 810 l 810 810 l 810 694 l 926 694 l 926 0 l 694 0 l 694 694 l 579 694 l 579 0 l 347 0 l 347 694 l 232 694 l 232 0 l 0 0 l 0 810 l 115 810 l 115 694 l 232 694 z "},"n":{"ha":810,"x_min":0,"x_max":694,"o":"m 232 0 l 0 0 l 0 810 l 115 810 l 115 694 l 232 694 l 232 810 l 579 810 l 579 694 l 694 694 l 694 0 l 463 0 l 463 694 l 232 694 l 232 0 z "},"o":{"ha":810,"x_min":0,"x_max":694,"o":"m 0 694 l 115 694 l 115 810 l 579 810 l 579 694 l 694 694 l 694 115 l 579 115 l 579 0 l 115 0 l 115 115 l 0 115 l 0 694 z m 232 115 l 463 115 l 463 694 l 232 694 l 232 115 z "},"p":{"ha":810,"x_min":0,"x_max":694,"o":"m 232 -232 l 0 -232 l 0 810 l 115 810 l 115 694 l 232 694 l 232 810 l 579 810 l 579 694 l 694 694 l 694 232 l 579 232 l 579 115 l 232 115 l 232 -232 z m 232 232 l 463 232 l 463 694 l 232 694 l 232 232 z "},"q":{"ha":810,"x_min":0,"x_max":694,"o":"m 0 694 l 115 694 l 115 810 l 694 810 l 694 -232 l 463 -232 l 463 115 l 347 115 l 347 0 l 115 0 l 115 115 l 0 115 l 0 694 z m 347 232 l 463 232 l 463 694 l 232 694 l 232 115 l 347 115 l 347 232 z "},"r":{"ha":578,"x_min":0,"x_max":463,"o":"m 232 0 l 0 0 l 0 810 l 115 810 l 115 694 l 232 694 l 232 810 l 463 810 l 463 579 l 347 579 l 347 694 l 232 694 l 232 0 z "},"s":{"ha":810,"x_min":0,"x_max":694,"o":"m 0 694 l 115 694 l 115 810 l 579 810 l 579 694 l 232 694 l 232 579 l 347 579 l 347 463 l 579 463 l 579 347 l 694 347 l 694 115 l 579 115 l 579 0 l 115 0 l 115 115 l 0 115 l 0 232 l 115 232 l 115 115 l 463 115 l 463 232 l 347 232 l 347 347 l 115 347 l 115 463 l 0 463 l 0 694 z "},"t":{"ha":578,"x_min":0,"x_max":463,"o":"m 115 926 l 232 926 l 232 1042 l 347 1042 l 347 810 l 463 810 l 463 694 l 347 694 l 347 0 l 115 0 l 115 694 l 0 694 l 0 810 l 115 810 l 115 926 z "},"u":{"ha":810,"x_min":0,"x_max":694,"o":"m 115 115 l 0 115 l 0 810 l 232 810 l 232 115 l 463 115 l 463 810 l 694 810 l 694 0 l 579 0 l 579 115 l 463 115 l 463 0 l 115 0 l 115 115 z "},"v":{"ha":810,"x_min":0,"x_max":694,"o":"m 115 232 l 0 232 l 0 810 l 232 810 l 232 232 l 463 232 l 463 810 l 579 810 l 579 694 l 694 694 l 694 232 l 579 232 l 579 115 l 463 115 l 463 0 l 232 0 l 232 115 l 115 115 l 115 232 z "},"w":{"ha":1042,"x_min":0,"x_max":926,"o":"m 115 115 l 0 115 l 0 810 l 232 810 l 232 232 l 347 232 l 347 810 l 579 810 l 579 232 l 694 232 l 694 810 l 810 810 l 810 694 l 926 694 l 926 232 l 810 232 l 810 115 l 694 115 l 694 0 l 463 0 l 463 115 l 347 115 l 347 0 l 115 0 l 115 115 z "},"x":{"ha":810,"x_min":0,"x_max":694,"o":"m 115 579 l 0 579 l 0 810 l 232 810 l 232 579 l 463 579 l 463 810 l 694 810 l 694 694 l 579 694 l 579 463 l 463 463 l 463 347 l 579 347 l 579 232 l 694 232 l 694 0 l 463 0 l 463 232 l 347 232 l 347 347 l 232 347 l 232 0 l 0 0 l 0 232 l 115 232 l 115 347 l 232 347 l 232 463 l 115 463 l 115 579 z "},"y":{"ha":810,"x_min":0,"x_max":694,"o":"m 115 347 l 0 347 l 0 810 l 232 810 l 232 347 l 347 347 l 347 232 l 463 232 l 463 810 l 694 810 l 694 232 l 579 232 l 579 0 l 463 0 l 463 -115 l 347 -115 l 347 -232 l 115 -232 l 115 -115 l 232 -115 l 232 0 l 347 0 l 347 115 l 232 115 l 232 232 l 115 232 l 115 347 z "},"z":{"ha":810,"x_min":0,"x_max":694,"o":"m 115 579 l 0 579 l 0 810 l 694 810 l 694 579 l 579 579 l 579 347 l 463 347 l 463 232 l 347 232 l 347 115 l 694 115 l 694 0 l 0 0 l 0 232 l 115 232 l 115 347 l 232 347 l 232 463 l 347 463 l 347 579 l 463 579 l 463 694 l 115 694 l 115 579 z "},"{":{"ha":578,"x_min":0,"x_max":463,"o":"m 115 1042 l 232 1042 l 232 1157 l 463 1157 l 463 1042 l 347 1042 l 347 579 l 232 579 l 232 463 l 347 463 l 347 -115 l 463 -115 l 463 -232 l 232 -232 l 232 -115 l 115 -115 l 115 463 l 0 463 l 0 579 l 115 579 l 115 1042 z "},"|":{"ha":347,"x_min":0,"x_max":232,"o":"m 232 -232 l 0 -232 l 0 1042 l 232 1042 l 232 -232 z "},"}":{"ha":578,"x_min":0,"x_max":463,"o":"m 115 1042 l 0 1042 l 0 1157 l 232 1157 l 232 1042 l 347 1042 l 347 579 l 463 579 l 463 463 l 347 463 l 347 -115 l 232 -115 l 232 -232 l 0 -232 l 0 -115 l 115 -115 l 115 463 l 232 463 l 232 579 l 115 579 l 115 1042 z "},"~":{"ha":694,"x_min":0,"x_max":579,"o":"m 0 463 l 115 463 l 115 579 l 347 579 l 347 463 l 463 463 l 463 579 l 579 579 l 579 463 l 463 463 l 463 347 l 232 347 l 232 463 l 115 463 l 115 347 l 0 347 l 0 463 z "},"":{"ha":1042,"x_min":0,"x_max":926,"o":"m 579 926 l 694 926 l 694 1042 l 810 1042 l 810 810 l 926 810 l 926 694 l 810 694 l 810 0 l 579 0 l 579 694 l 347 694 l 347 0 l 115 0 l 115 694 l 0 694 l 0 810 l 115 810 l 115 1042 l 232 1042 l 232 1157 l 579 1157 l 579 1042 l 347 1042 l 347 810 l 579 810 l 579 926 z "}," ":{"ha":347,"x_min":null,"x_max":null,"o":""},"¡":{"ha":347,"x_min":0,"x_max":232,"o":"m 0 347 l 115 347 l 115 463 l 232 463 l 232 -232 l 0 -232 l 0 347 z m 232 579 l 0 579 l 0 810 l 232 810 l 232 579 z "},"¢":{"ha":694,"x_min":0,"x_max":579,"o":"m 115 694 l 347 694 l 347 810 l 463 810 l 463 694 l 579 694 l 579 579 l 463 579 l 463 115 l 579 115 l 579 0 l 463 0 l 463 -115 l 347 -115 l 347 0 l 115 0 l 115 115 l 0 115 l 0 579 l 115 579 l 115 694 z m 232 115 l 347 115 l 347 579 l 232 579 l 232 115 z "},"£":{"ha":810,"x_min":0,"x_max":694,"o":"m 115 926 l 232 926 l 232 1042 l 463 1042 l 463 926 l 579 926 l 579 810 l 463 810 l 463 926 l 232 926 l 232 694 l 347 694 l 347 579 l 463 579 l 463 463 l 347 463 l 347 115 l 579 115 l 579 232 l 694 232 l 694 115 l 579 115 l 579 0 l 232 0 l 232 115 l 115 115 l 115 0 l 0 0 l 0 115 l 115 115 l 115 463 l 0 463 l 0 579 l 115 579 l 115 926 z "},"¥":{"ha":810,"x_min":0,"x_max":694,"o":"m 115 810 l 0 810 l 0 1042 l 232 1042 l 232 810 l 347 810 l 347 694 l 463 694 l 463 1042 l 694 1042 l 694 810 l 579 810 l 579 579 l 463 579 l 463 463 l 579 463 l 579 347 l 463 347 l 463 0 l 232 0 l 232 347 l 115 347 l 115 463 l 232 463 l 232 579 l 115 579 l 115 810 z "},"§":{"ha":810,"x_min":0,"x_max":694,"o":"m 0 926 l 115 926 l 115 1042 l 579 1042 l 579 926 l 694 926 l 694 810 l 463 810 l 463 926 l 232 926 l 232 694 l 579 694 l 579 579 l 694 579 l 694 347 l 579 347 l 579 232 l 694 232 l 694 0 l 579 0 l 579 -115 l 115 -115 l 115 0 l 0 0 l 0 115 l 232 115 l 232 0 l 463 0 l 463 232 l 115 232 l 115 347 l 0 347 l 0 579 l 115 579 l 115 694 l 0 694 l 0 926 z m 232 347 l 463 347 l 463 579 l 232 579 l 232 347 z "},"©":{"ha":925,"x_min":0,"x_max":810,"o":"m 579 232 l 232 232 l 232 579 l 579 579 l 579 463 l 347 463 l 347 347 l 579 347 l 579 232 z m 0 694 l 115 694 l 115 810 l 694 810 l 694 694 l 810 694 l 810 115 l 694 115 l 694 0 l 115 0 l 115 115 l 0 115 l 0 694 z m 115 115 l 694 115 l 694 694 l 115 694 l 115 115 z "},"ª":{"ha":463,"x_min":0,"x_max":347,"o":"m 347 463 l 0 463 l 0 579 l 347 579 l 347 463 z m 0 926 l 115 926 l 115 1042 l 347 1042 l 347 694 l 0 694 l 0 926 z m 115 810 l 232 810 l 232 926 l 115 926 l 115 810 z "},"«":{"ha":694,"x_min":0,"x_max":579,"o":"m 347 463 l 463 463 l 463 694 l 579 694 l 579 463 l 463 463 l 463 347 l 579 347 l 579 115 l 463 115 l 463 347 l 347 347 l 347 463 z m 115 579 l 232 579 l 232 694 l 347 694 l 347 579 l 232 579 l 232 463 l 115 463 l 115 347 l 232 347 l 232 232 l 347 232 l 347 115 l 232 115 l 232 232 l 115 232 l 115 347 l 0 347 l 0 463 l 115 463 l 115 579 z "},"¬":{"ha":1272,"x_min":0,"x_max":1157,"o":"m 0 694 l 115 694 l 115 810 l 463 810 l 463 926 l 579 926 l 579 1042 l 810 1042 l 810 926 l 579 926 l 579 694 l 232 694 l 232 579 l 347 579 l 347 463 l 579 463 l 579 347 l 694 347 l 694 115 l 579 115 l 579 0 l 115 0 l 115 115 l 0 115 l 0 232 l 115 232 l 115 115 l 463 115 l 463 232 l 347 232 l 347 347 l 115 347 l 115 463 l 0 463 l 0 694 z m 810 926 l 926 926 l 926 1042 l 1042 1042 l 1042 810 l 1157 810 l 1157 694 l 1042 694 l 1042 0 l 810 0 l 810 694 l 694 694 l 694 810 l 810 810 l 810 926 z "},"­":{"ha":578,"x_min":0,"x_max":463,"o":"m 463 347 l 0 347 l 0 463 l 463 463 l 463 347 z "},"®":{"ha":925,"x_min":0,"x_max":810,"o":"m 347 232 l 232 232 l 232 579 l 579 579 l 579 463 l 347 463 l 347 232 z m 0 694 l 115 694 l 115 810 l 694 810 l 694 694 l 810 694 l 810 115 l 694 115 l 694 0 l 115 0 l 115 115 l 0 115 l 0 694 z m 115 115 l 694 115 l 694 694 l 115 694 l 115 115 z "},"¯":{"ha":925,"x_min":0,"x_max":810,"o":"m 579 1042 l 694 1042 l 694 1157 l 810 1157 l 810 0 l 579 0 l 579 1042 z m 115 1042 l 232 1042 l 232 1157 l 579 1157 l 579 1042 l 347 1042 l 347 810 l 463 810 l 463 694 l 347 694 l 347 0 l 115 0 l 115 694 l 0 694 l 0 810 l 115 810 l 115 1042 z "},"°":{"ha":578,"x_min":0,"x_max":463,"o":"m 115 926 l 115 1042 l 347 1042 l 347 926 l 463 926 l 463 694 l 347 694 l 347 579 l 115 579 l 115 694 l 0 694 l 0 926 l 115 926 z m 115 694 l 347 694 l 347 926 l 115 926 l 115 694 z "},"±":{"ha":694,"x_min":0,"x_max":579,"o":"m 579 115 l 0 115 l 0 232 l 579 232 l 579 115 z m 0 579 l 232 579 l 232 694 l 347 694 l 347 579 l 579 579 l 579 463 l 347 463 l 347 347 l 232 347 l 232 463 l 0 463 l 0 579 z "},"²":{"ha":463,"x_min":0,"x_max":347,"o":"m 232 1042 l 0 1042 l 0 1157 l 232 1157 l 232 1042 l 347 1042 l 347 926 l 232 926 l 232 810 l 115 810 l 115 694 l 347 694 l 347 579 l 0 579 l 0 810 l 115 810 l 115 926 l 232 926 l 232 1042 z "},"³":{"ha":463,"x_min":0,"x_max":347,"o":"m 232 1042 l 0 1042 l 0 1157 l 232 1157 l 232 1042 l 347 1042 l 347 926 l 232 926 l 232 810 l 347 810 l 347 694 l 232 694 l 232 579 l 0 579 l 0 694 l 232 694 l 232 810 l 115 810 l 115 926 l 232 926 l 232 1042 z "},"µ":{"ha":925,"x_min":0,"x_max":810,"o":"m 115 579 l 232 579 l 232 810 l 347 810 l 347 347 l 463 347 l 463 579 l 579 579 l 579 810 l 694 810 l 694 232 l 810 232 l 810 0 l 579 0 l 579 347 l 463 347 l 463 0 l 347 0 l 347 347 l 232 347 l 232 0 l 115 0 l 115 -232 l 0 -232 l 0 232 l 115 232 l 115 579 z "},"¶":{"ha":810,"x_min":0,"x_max":694,"o":"m 0 694 l 115 694 l 115 810 l 694 810 l 694 694 l 579 694 l 579 -115 l 463 -115 l 463 -232 l 115 -232 l 115 -115 l 463 -115 l 463 694 l 347 694 l 347 0 l 232 0 l 232 232 l 115 232 l 115 347 l 0 347 l 0 694 z "},"·":{"ha":347,"x_min":0,"x_max":232,"o":"m 232 347 l 0 347 l 0 579 l 232 579 l 232 347 z "},"¹":{"ha":463,"x_min":0,"x_max":347,"o":"m 0 1042 l 115 1042 l 115 1157 l 232 1157 l 232 694 l 347 694 l 347 579 l 0 579 l 0 694 l 115 694 l 115 926 l 0 926 l 0 1042 z "},"º":{"ha":463,"x_min":0,"x_max":347,"o":"m 347 463 l 0 463 l 0 579 l 347 579 l 347 463 z m 347 694 l 0 694 l 0 1042 l 347 1042 l 347 694 z m 115 810 l 232 810 l 232 926 l 115 926 l 115 810 z "},"»":{"ha":694,"x_min":0,"x_max":579,"o":"m 347 579 l 232 579 l 232 694 l 347 694 l 347 579 l 463 579 l 463 463 l 579 463 l 579 347 l 463 347 l 463 232 l 347 232 l 347 115 l 232 115 l 232 232 l 347 232 l 347 347 l 463 347 l 463 463 l 347 463 l 347 579 z m 115 463 l 0 463 l 0 694 l 115 694 l 115 463 l 232 463 l 232 347 l 115 347 l 115 115 l 0 115 l 0 347 l 115 347 l 115 463 z "},"¿":{"ha":694,"x_min":0,"x_max":579,"o":"m 115 232 l 232 232 l 232 463 l 463 463 l 463 232 l 347 232 l 347 115 l 232 115 l 232 -115 l 463 -115 l 463 0 l 579 0 l 579 -232 l 115 -232 l 115 -115 l 0 -115 l 0 115 l 115 115 l 115 232 z m 463 579 l 232 579 l 232 810 l 463 810 l 463 579 z "},"À":{"ha":925,"x_min":0,"x_max":810,"o":"m 579 579 l 463 579 l 463 810 l 347 810 l 347 694 l 232 694 l 232 347 l 579 347 l 579 579 z m 463 1042 l 463 926 l 579 926 l 579 810 l 694 810 l 694 579 l 810 579 l 810 0 l 579 0 l 579 232 l 232 232 l 232 0 l 0 0 l 0 463 l 115 463 l 115 694 l 232 694 l 232 810 l 347 810 l 347 1042 l 232 1042 l 232 1157 l 347 1157 l 347 1042 l 463 1042 z "},"Á":{"ha":925,"x_min":0,"x_max":810,"o":"m 232 810 l 347 810 l 347 926 l 579 926 l 579 810 l 694 810 l 694 579 l 810 579 l 810 0 l 579 0 l 579 232 l 232 232 l 232 0 l 0 0 l 0 463 l 115 463 l 115 694 l 232 694 l 232 810 z m 579 579 l 463 579 l 463 810 l 347 810 l 347 694 l 232 694 l 232 347 l 579 347 l 579 579 z m 232 1042 l 347 1042 l 347 1157 l 463 1157 l 463 1042 l 347 1042 l 347 926 l 232 926 l 232 1042 z "},"Â":{"ha":925,"x_min":0,"x_max":810,"o":"m 579 579 l 463 579 l 463 810 l 347 810 l 347 694 l 232 694 l 232 347 l 579 347 l 579 579 z m 232 810 l 347 810 l 347 926 l 463 926 l 463 1042 l 347 1042 l 347 926 l 232 926 l 232 1042 l 347 1042 l 347 1157 l 463 1157 l 463 1042 l 579 1042 l 579 810 l 694 810 l 694 579 l 810 579 l 810 0 l 579 0 l 579 232 l 232 232 l 232 0 l 0 0 l 0 463 l 115 463 l 115 694 l 232 694 l 232 810 z "},"Ã":{"ha":925,"x_min":0,"x_max":810,"o":"m 115 1042 l 232 1042 l 232 1157 l 463 1157 l 463 1042 l 579 1042 l 579 1157 l 694 1157 l 694 1042 l 579 1042 l 579 926 l 347 926 l 347 1042 l 232 1042 l 232 926 l 115 926 l 115 1042 z m 232 694 l 347 694 l 347 810 l 579 810 l 579 694 l 694 694 l 694 463 l 810 463 l 810 0 l 579 0 l 579 232 l 232 232 l 232 0 l 0 0 l 0 347 l 115 347 l 115 579 l 232 579 l 232 694 z m 232 579 l 232 347 l 579 347 l 579 463 l 463 463 l 463 694 l 347 694 l 347 579 l 232 579 z "},"Ä":{"ha":925,"x_min":0,"x_max":810,"o":"m 347 1042 l 232 1042 l 232 1157 l 347 1157 l 347 1042 l 579 1042 l 579 1157 l 694 1157 l 694 1042 l 579 1042 l 579 926 l 694 926 l 694 694 l 810 694 l 810 0 l 579 0 l 579 347 l 232 347 l 232 0 l 0 0 l 0 579 l 115 579 l 115 810 l 232 810 l 232 926 l 347 926 l 347 1042 z m 579 694 l 463 694 l 463 926 l 347 926 l 347 810 l 232 810 l 232 463 l 579 463 l 579 694 z "},"Å":{"ha":925,"x_min":0,"x_max":810,"o":"m 232 579 l 232 347 l 579 347 l 579 463 l 463 463 l 463 694 l 347 694 l 347 579 l 232 579 z m 347 926 l 463 926 l 463 1042 l 347 1042 l 347 926 z m 347 810 l 232 810 l 232 1157 l 579 1157 l 579 694 l 694 694 l 694 463 l 810 463 l 810 0 l 579 0 l 579 232 l 232 232 l 232 0 l 0 0 l 0 347 l 115 347 l 115 579 l 232 579 l 232 694 l 347 694 l 347 810 z "},"Æ":{"ha":1042,"x_min":0,"x_max":926,"o":"m 232 926 l 347 926 l 347 1042 l 926 1042 l 926 926 l 694 926 l 694 579 l 926 579 l 926 463 l 694 463 l 694 115 l 926 115 l 926 0 l 463 0 l 463 347 l 232 347 l 232 0 l 0 0 l 0 579 l 115 579 l 115 810 l 232 810 l 232 926 z m 232 463 l 463 463 l 463 926 l 347 926 l 347 694 l 232 694 l 232 463 z "},"Ç":{"ha":810,"x_min":0,"x_max":694,"o":"m 0 926 l 115 926 l 115 1042 l 579 1042 l 579 926 l 694 926 l 694 810 l 463 810 l 463 926 l 232 926 l 232 115 l 463 115 l 463 347 l 694 347 l 694 115 l 579 115 l 579 0 l 463 0 l 463 -115 l 347 -115 l 347 -232 l 232 -232 l 232 -115 l 347 -115 l 347 0 l 115 0 l 115 115 l 0 115 l 0 926 z "},"È":{"ha":694,"x_min":0,"x_max":579,"o":"m 0 926 l 232 926 l 232 1042 l 115 1042 l 115 1157 l 232 1157 l 232 1042 l 347 1042 l 347 926 l 579 926 l 579 694 l 463 694 l 463 810 l 232 810 l 232 579 l 463 579 l 463 463 l 232 463 l 232 115 l 579 115 l 579 0 l 0 0 l 0 926 z "},"É":{"ha":694,"x_min":0,"x_max":579,"o":"m 232 1042 l 347 1042 l 347 1157 l 463 1157 l 463 1042 l 347 1042 l 347 926 l 579 926 l 579 694 l 463 694 l 463 810 l 232 810 l 232 579 l 463 579 l 463 463 l 232 463 l 232 115 l 579 115 l 579 0 l 0 0 l 0 926 l 232 926 l 232 1042 z "},"Ê":{"ha":694,"x_min":0,"x_max":579,"o":"m 579 0 l 0 0 l 0 926 l 115 926 l 115 1042 l 232 1042 l 232 1157 l 347 1157 l 347 1042 l 463 1042 l 463 926 l 579 926 l 579 694 l 463 694 l 463 810 l 232 810 l 232 579 l 463 579 l 463 463 l 232 463 l 232 115 l 579 115 l 579 0 z m 232 1042 l 232 926 l 347 926 l 347 1042 l 232 1042 z "},"Ë":{"ha":694,"x_min":0,"x_max":579,"o":"m 463 1042 l 347 1042 l 347 1157 l 463 1157 l 463 1042 z m 232 1042 l 115 1042 l 115 1157 l 232 1157 l 232 1042 z m 579 0 l 0 0 l 0 926 l 579 926 l 579 694 l 463 694 l 463 810 l 232 810 l 232 579 l 463 579 l 463 463 l 232 463 l 232 115 l 579 115 l 579 0 z "},"Ì":{"ha":578,"x_min":0,"x_max":463,"o":"m 115 810 l 0 810 l 0 926 l 232 926 l 232 1042 l 115 1042 l 115 1157 l 232 1157 l 232 1042 l 347 1042 l 347 926 l 463 926 l 463 810 l 347 810 l 347 115 l 463 115 l 463 0 l 0 0 l 0 115 l 115 115 l 115 810 z "},"Í":{"ha":578,"x_min":0,"x_max":463,"o":"m 115 1042 l 232 1042 l 232 1157 l 347 1157 l 347 1042 l 232 1042 l 232 926 l 463 926 l 463 810 l 347 810 l 347 115 l 463 115 l 463 0 l 0 0 l 0 115 l 115 115 l 115 810 l 0 810 l 0 926 l 115 926 l 115 1042 z "},"Î":{"ha":578,"x_min":0,"x_max":463,"o":"m 463 1042 l 463 810 l 347 810 l 347 115 l 463 115 l 463 0 l 0 0 l 0 115 l 115 115 l 115 810 l 0 810 l 0 926 l 115 926 l 115 1042 l 232 1042 l 232 1157 l 347 1157 l 347 1042 l 463 1042 z m 232 1042 l 232 926 l 347 926 l 347 1042 l 232 1042 z "},"Ï":{"ha":578,"x_min":0,"x_max":463,"o":"m 463 1042 l 347 1042 l 347 1157 l 463 1157 l 463 1042 z m 115 1042 l 0 1042 l 0 1157 l 115 1157 l 115 1042 z m 115 810 l 0 810 l 0 926 l 463 926 l 463 810 l 347 810 l 347 115 l 463 115 l 463 0 l 0 0 l 0 115 l 115 115 l 115 810 z "},"Ð":{"ha":925,"x_min":0,"x_max":810,"o":"m 0 694 l 115 694 l 115 1042 l 694 1042 l 694 926 l 810 926 l 810 232 l 694 232 l 694 115 l 579 115 l 579 0 l 115 0 l 115 579 l 0 579 l 0 694 z m 463 232 l 579 232 l 579 926 l 347 926 l 347 694 l 463 694 l 463 579 l 347 579 l 347 115 l 463 115 l 463 232 z "},"Ñ":{"ha":925,"x_min":0,"x_max":810,"o":"m 115 1042 l 232 1042 l 232 1157 l 463 1157 l 463 1042 l 579 1042 l 579 1157 l 694 1157 l 694 1042 l 579 1042 l 579 926 l 810 926 l 810 0 l 694 0 l 694 115 l 579 115 l 579 232 l 463 232 l 463 347 l 347 347 l 347 463 l 232 463 l 232 0 l 0 0 l 0 810 l 232 810 l 232 694 l 347 694 l 347 579 l 463 579 l 463 463 l 579 463 l 579 926 l 347 926 l 347 1042 l 232 1042 l 232 926 l 115 926 l 115 1042 z "},"Ò":{"ha":925,"x_min":0,"x_max":810,"o":"m 579 694 l 463 694 l 463 810 l 232 810 l 232 232 l 347 232 l 347 115 l 579 115 l 579 694 z m 232 926 l 347 926 l 347 1042 l 232 1042 l 232 1157 l 347 1157 l 347 1042 l 463 1042 l 463 926 l 694 926 l 694 810 l 810 810 l 810 232 l 694 232 l 694 115 l 579 115 l 579 0 l 115 0 l 115 115 l 0 115 l 0 694 l 115 694 l 115 810 l 232 810 l 232 926 z "},"Ó":{"ha":925,"x_min":0,"x_max":810,"o":"m 579 694 l 463 694 l 463 810 l 232 810 l 232 232 l 347 232 l 347 115 l 579 115 l 579 694 z m 347 1042 l 463 1042 l 463 1157 l 579 1157 l 579 1042 l 463 1042 l 463 926 l 694 926 l 694 810 l 810 810 l 810 232 l 694 232 l 694 115 l 579 115 l 579 0 l 115 0 l 115 115 l 0 115 l 0 694 l 115 694 l 115 810 l 232 810 l 232 926 l 347 926 l 347 1042 z "},"Ô":{"ha":925,"x_min":0,"x_max":810,"o":"m 579 694 l 463 694 l 463 810 l 232 810 l 232 232 l 347 232 l 347 115 l 579 115 l 579 694 z m 115 810 l 232 810 l 232 1042 l 347 1042 l 347 1157 l 463 1157 l 463 1042 l 579 1042 l 579 926 l 694 926 l 694 810 l 810 810 l 810 232 l 694 232 l 694 115 l 579 115 l 579 0 l 115 0 l 115 115 l 0 115 l 0 694 l 115 694 l 115 810 z m 347 1042 l 347 926 l 463 926 l 463 1042 l 347 1042 z "},"Õ":{"ha":925,"x_min":0,"x_max":810,"o":"m 115 1042 l 232 1042 l 232 1157 l 463 1157 l 463 1042 l 579 1042 l 579 1157 l 694 1157 l 694 1042 l 579 1042 l 579 926 l 347 926 l 347 1042 l 232 1042 l 232 926 l 115 926 l 115 1042 z m 115 694 l 232 694 l 232 810 l 694 810 l 694 694 l 810 694 l 810 232 l 694 232 l 694 115 l 579 115 l 579 0 l 115 0 l 115 115 l 0 115 l 0 579 l 115 579 l 115 694 z m 579 579 l 463 579 l 463 694 l 232 694 l 232 232 l 347 232 l 347 115 l 579 115 l 579 579 z "},"Ö":{"ha":925,"x_min":0,"x_max":810,"o":"m 115 810 l 232 810 l 232 926 l 694 926 l 694 810 l 810 810 l 810 232 l 694 232 l 694 115 l 579 115 l 579 0 l 115 0 l 115 115 l 0 115 l 0 694 l 115 694 l 115 810 z m 579 694 l 463 694 l 463 810 l 232 810 l 232 232 l 347 232 l 347 115 l 579 115 l 579 694 z m 579 1042 l 463 1042 l 463 1157 l 579 1157 l 579 1042 z m 347 1042 l 232 1042 l 232 1157 l 347 1157 l 347 1042 z "},"×":{"ha":694,"x_min":0,"x_max":579,"o":"m 115 579 l 0 579 l 0 694 l 115 694 l 115 579 l 232 579 l 232 463 l 347 463 l 347 579 l 463 579 l 463 694 l 579 694 l 579 579 l 463 579 l 463 463 l 347 463 l 347 347 l 463 347 l 463 232 l 579 232 l 579 115 l 463 115 l 463 232 l 347 232 l 347 347 l 232 347 l 232 232 l 115 232 l 115 115 l 0 115 l 0 232 l 115 232 l 115 347 l 232 347 l 232 463 l 115 463 l 115 579 z "},"Ø":{"ha":925,"x_min":0,"x_max":810,"o":"m 0 926 l 115 926 l 115 1042 l 579 1042 l 579 926 l 694 926 l 694 1042 l 810 1042 l 810 926 l 694 926 l 694 810 l 810 810 l 810 115 l 694 115 l 694 0 l 232 0 l 232 115 l 115 115 l 115 0 l 0 0 l 0 115 l 115 115 l 115 232 l 0 232 l 0 926 z m 463 694 l 579 694 l 579 926 l 347 926 l 347 810 l 232 810 l 232 463 l 347 463 l 347 579 l 463 579 l 463 694 z m 463 232 l 579 232 l 579 579 l 463 579 l 463 463 l 347 463 l 347 347 l 232 347 l 232 115 l 463 115 l 463 232 z "},"Ù":{"ha":810,"x_min":0,"x_max":694,"o":"m 347 926 l 347 1042 l 232 1042 l 232 1157 l 347 1157 l 347 1042 l 463 1042 l 463 926 l 347 926 z m 115 115 l 0 115 l 0 926 l 232 926 l 232 115 l 463 115 l 463 926 l 694 926 l 694 0 l 579 0 l 579 115 l 463 115 l 463 0 l 115 0 l 115 115 z "},"Ú":{"ha":810,"x_min":0,"x_max":694,"o":"m 115 115 l 0 115 l 0 926 l 232 926 l 232 115 l 463 115 l 463 926 l 694 926 l 694 0 l 579 0 l 579 115 l 463 115 l 463 0 l 115 0 l 115 115 z m 232 1042 l 347 1042 l 347 1157 l 463 1157 l 463 1042 l 347 1042 l 347 926 l 232 926 l 232 1042 z "},"Û":{"ha":810,"x_min":0,"x_max":694,"o":"m 115 115 l 0 115 l 0 926 l 232 926 l 232 1042 l 347 1042 l 347 1157 l 463 1157 l 463 1042 l 579 1042 l 579 926 l 694 926 l 694 0 l 579 0 l 579 115 l 463 115 l 463 0 l 115 0 l 115 115 z m 347 926 l 232 926 l 232 115 l 463 115 l 463 1042 l 347 1042 l 347 926 z "},"Ü":{"ha":810,"x_min":0,"x_max":694,"o":"m 115 115 l 0 115 l 0 926 l 232 926 l 232 115 l 463 115 l 463 926 l 694 926 l 694 0 l 579 0 l 579 115 l 463 115 l 463 0 l 115 0 l 115 115 z m 579 1042 l 463 1042 l 463 1157 l 579 1157 l 579 1042 z m 232 1042 l 115 1042 l 115 1157 l 232 1157 l 232 1042 z "},"Ý":{"ha":810,"x_min":0,"x_max":694,"o":"m 115 694 l 0 694 l 0 926 l 115 926 l 115 810 l 232 810 l 232 694 l 347 694 l 347 579 l 463 579 l 463 926 l 694 926 l 694 694 l 579 694 l 579 463 l 463 463 l 463 0 l 232 0 l 232 463 l 115 463 l 115 694 z m 232 1042 l 347 1042 l 347 1157 l 463 1157 l 463 1042 l 347 1042 l 347 926 l 232 926 l 232 1042 z "},"Þ":{"ha":925,"x_min":0,"x_max":810,"o":"m 115 926 l 0 926 l 0 1042 l 463 1042 l 463 926 l 347 926 l 347 810 l 694 810 l 694 694 l 810 694 l 810 347 l 694 347 l 694 232 l 347 232 l 347 115 l 463 115 l 463 0 l 0 0 l 0 115 l 115 115 l 115 926 z m 347 347 l 579 347 l 579 694 l 347 694 l 347 347 z "},"ß":{"ha":810,"x_min":0,"x_max":694,"o":"m 115 1042 l 232 1042 l 232 1157 l 579 1157 l 579 1042 l 694 1042 l 694 694 l 579 694 l 579 579 l 694 579 l 694 115 l 579 115 l 579 0 l 347 0 l 347 115 l 463 115 l 463 579 l 347 579 l 347 694 l 463 694 l 463 1042 l 232 1042 l 232 -232 l 0 -232 l 0 926 l 115 926 l 115 1042 z "},"à":{"ha":810,"x_min":0,"x_max":694,"o":"m 347 926 l 347 1042 l 232 1042 l 232 1157 l 347 1157 l 347 1042 l 463 1042 l 463 926 l 347 926 z m 115 694 l 232 694 l 232 810 l 579 810 l 579 694 l 694 694 l 694 0 l 579 0 l 579 115 l 463 115 l 463 0 l 115 0 l 115 115 l 0 115 l 0 347 l 115 347 l 115 463 l 463 463 l 463 694 l 232 694 l 232 579 l 115 579 l 115 694 z m 347 232 l 463 232 l 463 347 l 232 347 l 232 115 l 347 115 l 347 232 z "},"á":{"ha":810,"x_min":0,"x_max":694,"o":"m 115 694 l 232 694 l 232 810 l 579 810 l 579 694 l 694 694 l 694 0 l 579 0 l 579 115 l 463 115 l 463 0 l 115 0 l 115 115 l 0 115 l 0 347 l 115 347 l 115 463 l 463 463 l 463 694 l 232 694 l 232 579 l 115 579 l 115 694 z m 347 232 l 463 232 l 463 347 l 232 347 l 232 115 l 347 115 l 347 232 z m 347 1042 l 463 1042 l 463 1157 l 579 1157 l 579 1042 l 463 1042 l 463 926 l 347 926 l 347 1042 z "},"â":{"ha":810,"x_min":0,"x_max":694,"o":"m 232 926 l 232 1042 l 347 1042 l 347 1157 l 463 1157 l 463 1042 l 579 1042 l 579 926 l 463 926 l 463 1042 l 347 1042 l 347 926 l 232 926 z m 115 694 l 232 694 l 232 810 l 579 810 l 579 694 l 694 694 l 694 0 l 579 0 l 579 115 l 463 115 l 463 0 l 115 0 l 115 115 l 0 115 l 0 347 l 115 347 l 115 463 l 463 463 l 463 694 l 232 694 l 232 579 l 115 579 l 115 694 z m 347 232 l 463 232 l 463 347 l 232 347 l 232 115 l 347 115 l 347 232 z "},"ã":{"ha":810,"x_min":0,"x_max":694,"o":"m 115 1042 l 232 1042 l 232 1157 l 463 1157 l 463 1042 l 579 1042 l 579 1157 l 694 1157 l 694 1042 l 579 1042 l 579 926 l 347 926 l 347 1042 l 232 1042 l 232 926 l 115 926 l 115 1042 z m 115 694 l 232 694 l 232 810 l 579 810 l 579 694 l 694 694 l 694 0 l 579 0 l 579 115 l 463 115 l 463 0 l 115 0 l 115 115 l 0 115 l 0 347 l 115 347 l 115 463 l 463 463 l 463 694 l 232 694 l 232 579 l 115 579 l 115 694 z m 347 232 l 463 232 l 463 347 l 232 347 l 232 115 l 347 115 l 347 232 z "},"ä":{"ha":810,"x_min":0,"x_max":694,"o":"m 115 694 l 232 694 l 232 810 l 579 810 l 579 694 l 694 694 l 694 0 l 579 0 l 579 115 l 463 115 l 463 0 l 115 0 l 115 115 l 0 115 l 0 347 l 115 347 l 115 463 l 463 463 l 463 694 l 232 694 l 232 579 l 115 579 l 115 694 z m 347 232 l 463 232 l 463 347 l 232 347 l 232 115 l 347 115 l 347 232 z m 463 926 l 463 1042 l 579 1042 l 579 926 l 463 926 z m 347 926 l 232 926 l 232 1042 l 347 1042 l 347 926 z "},"å":{"ha":810,"x_min":0,"x_max":694,"o":"m 347 232 l 463 232 l 463 347 l 232 347 l 232 115 l 347 115 l 347 232 z m 347 810 l 463 810 l 463 926 l 347 926 l 347 810 z m 115 694 l 232 694 l 232 1042 l 579 1042 l 579 694 l 694 694 l 694 0 l 579 0 l 579 115 l 463 115 l 463 0 l 115 0 l 115 115 l 0 115 l 0 347 l 115 347 l 115 463 l 463 463 l 463 694 l 232 694 l 232 579 l 115 579 l 115 694 z "},"æ":{"ha":1042,"x_min":0,"x_max":926,"o":"m 347 694 l 115 694 l 115 810 l 463 810 l 463 694 l 579 694 l 579 810 l 810 810 l 810 694 l 926 694 l 926 347 l 579 347 l 579 115 l 810 115 l 810 232 l 926 232 l 926 115 l 810 115 l 810 0 l 579 0 l 579 115 l 463 115 l 463 0 l 115 0 l 115 115 l 0 115 l 0 347 l 115 347 l 115 463 l 347 463 l 347 694 z m 579 463 l 694 463 l 694 694 l 579 694 l 579 463 z m 232 115 l 347 115 l 347 347 l 232 347 l 232 115 z "},"ç":{"ha":694,"x_min":0,"x_max":579,"o":"m 0 694 l 115 694 l 115 810 l 463 810 l 463 694 l 579 694 l 579 579 l 463 579 l 463 694 l 232 694 l 232 115 l 463 115 l 463 232 l 579 232 l 579 115 l 463 115 l 463 0 l 347 0 l 347 -115 l 232 -115 l 232 0 l 115 0 l 115 115 l 0 115 l 0 694 z "},"è":{"ha":810,"x_min":0,"x_max":694,"o":"m 347 926 l 347 1042 l 232 1042 l 232 1157 l 347 1157 l 347 1042 l 463 1042 l 463 926 l 347 926 z m 0 694 l 115 694 l 115 810 l 579 810 l 579 694 l 694 694 l 694 347 l 232 347 l 232 115 l 579 115 l 579 232 l 694 232 l 694 115 l 579 115 l 579 0 l 115 0 l 115 115 l 0 115 l 0 694 z m 232 463 l 463 463 l 463 694 l 232 694 l 232 463 z "},"é":{"ha":810,"x_min":0,"x_max":694,"o":"m 232 1042 l 347 1042 l 347 1157 l 463 1157 l 463 1042 l 347 1042 l 347 926 l 232 926 l 232 1042 z m 0 694 l 115 694 l 115 810 l 579 810 l 579 694 l 694 694 l 694 347 l 232 347 l 232 115 l 579 115 l 579 232 l 694 232 l 694 115 l 579 115 l 579 0 l 115 0 l 115 115 l 0 115 l 0 694 z m 232 463 l 463 463 l 463 694 l 232 694 l 232 463 z "},"ê":{"ha":810,"x_min":0,"x_max":694,"o":"m 232 926 l 232 1042 l 347 1042 l 347 1157 l 463 1157 l 463 1042 l 579 1042 l 579 926 l 463 926 l 463 1042 l 347 1042 l 347 926 l 232 926 z m 0 694 l 115 694 l 115 810 l 579 810 l 579 694 l 694 694 l 694 347 l 232 347 l 232 115 l 579 115 l 579 232 l 694 232 l 694 115 l 579 115 l 579 0 l 115 0 l 115 115 l 0 115 l 0 694 z m 232 463 l 463 463 l 463 694 l 232 694 l 232 463 z "},"ë":{"ha":810,"x_min":0,"x_max":694,"o":"m 463 926 l 463 1042 l 579 1042 l 579 926 l 463 926 z m 232 926 l 115 926 l 115 1042 l 232 1042 l 232 926 z m 0 694 l 115 694 l 115 810 l 579 810 l 579 694 l 694 694 l 694 347 l 232 347 l 232 115 l 579 115 l 579 232 l 694 232 l 694 115 l 579 115 l 579 0 l 115 0 l 115 115 l 0 115 l 0 694 z m 232 463 l 463 463 l 463 694 l 232 694 l 232 463 z "},"ì":{"ha":347,"x_min":0,"x_max":232,"o":"m 115 926 l 115 1042 l 0 1042 l 0 1157 l 115 1157 l 115 1042 l 232 1042 l 232 926 l 115 926 z m 0 694 l 115 694 l 115 810 l 232 810 l 232 0 l 0 0 l 0 694 z "},"í":{"ha":347,"x_min":0,"x_max":232,"o":"m 0 1042 l 115 1042 l 115 1157 l 232 1157 l 232 1042 l 115 1042 l 115 926 l 0 926 l 0 1042 z m 0 694 l 115 694 l 115 810 l 232 810 l 232 0 l 0 0 l 0 694 z "},"î":{"ha":463,"x_min":0,"x_max":347,"o":"m 0 926 l 0 1042 l 115 1042 l 115 1157 l 232 1157 l 232 1042 l 347 1042 l 347 926 l 232 926 l 232 1042 l 115 1042 l 115 926 l 0 926 z m 0 694 l 115 694 l 115 810 l 232 810 l 232 0 l 0 0 l 0 694 z "},"ï":{"ha":347,"x_min":0,"x_max":347,"o":"m 232 926 l 232 1042 l 347 1042 l 347 926 l 232 926 z m 115 926 l 0 926 l 0 1042 l 115 1042 l 115 926 z m 0 694 l 115 694 l 115 810 l 232 810 l 232 0 l 115 0 l 0 0 l 0 347 l 0 694 z "},"ð":{"ha":810,"x_min":0,"x_max":694,"o":"m 232 926 l 115 926 l 115 1042 l 347 1042 l 347 926 l 463 926 l 463 1042 l 579 1042 l 579 926 l 463 926 l 463 810 l 579 810 l 579 579 l 694 579 l 694 115 l 579 115 l 579 0 l 115 0 l 115 115 l 0 115 l 0 463 l 115 463 l 115 579 l 347 579 l 347 810 l 232 810 l 232 694 l 115 694 l 115 810 l 232 810 l 232 926 z m 232 115 l 463 115 l 463 463 l 232 463 l 232 115 z "},"ñ":{"ha":810,"x_min":0,"x_max":694,"o":"m 232 0 l 0 0 l 0 810 l 115 810 l 115 694 l 232 694 l 232 810 l 579 810 l 579 694 l 694 694 l 694 0 l 463 0 l 463 694 l 232 694 l 232 0 z m 115 1042 l 232 1042 l 232 1157 l 463 1157 l 463 1042 l 579 1042 l 579 1157 l 694 1157 l 694 1042 l 579 1042 l 579 926 l 347 926 l 347 1042 l 232 1042 l 232 926 l 115 926 l 115 1042 z "},"ò":{"ha":810,"x_min":0,"x_max":694,"o":"m 347 926 l 347 1042 l 232 1042 l 232 1157 l 347 1157 l 347 1042 l 463 1042 l 463 926 l 347 926 z m 0 694 l 115 694 l 115 810 l 579 810 l 579 694 l 694 694 l 694 115 l 579 115 l 579 0 l 115 0 l 115 115 l 0 115 l 0 694 z m 232 115 l 463 115 l 463 694 l 232 694 l 232 115 z "},"ó":{"ha":810,"x_min":0,"x_max":694,"o":"m 232 1042 l 347 1042 l 347 1157 l 463 1157 l 463 1042 l 347 1042 l 347 926 l 232 926 l 232 1042 z m 0 694 l 115 694 l 115 810 l 579 810 l 579 694 l 694 694 l 694 115 l 579 115 l 579 0 l 115 0 l 115 115 l 0 115 l 0 694 z m 232 115 l 463 115 l 463 694 l 232 694 l 232 115 z "},"ô":{"ha":810,"x_min":0,"x_max":694,"o":"m 232 926 l 232 1042 l 347 1042 l 347 1157 l 463 1157 l 463 1042 l 579 1042 l 579 926 l 463 926 l 463 1042 l 347 1042 l 347 926 l 232 926 z m 0 694 l 115 694 l 115 810 l 579 810 l 579 694 l 694 694 l 694 115 l 579 115 l 579 0 l 115 0 l 115 115 l 0 115 l 0 694 z m 232 115 l 463 115 l 463 694 l 232 694 l 232 115 z "},"õ":{"ha":810,"x_min":0,"x_max":694,"o":"m 115 1042 l 232 1042 l 232 1157 l 463 1157 l 463 1042 l 579 1042 l 579 1157 l 694 1157 l 694 1042 l 579 1042 l 579 926 l 347 926 l 347 1042 l 232 1042 l 232 926 l 115 926 l 115 1042 z m 0 694 l 115 694 l 115 810 l 579 810 l 579 694 l 694 694 l 694 115 l 579 115 l 579 0 l 115 0 l 115 115 l 0 115 l 0 694 z m 232 115 l 463 115 l 463 694 l 232 694 l 232 115 z "},"ö":{"ha":810,"x_min":0,"x_max":694,"o":"m 0 694 l 115 694 l 115 810 l 579 810 l 579 694 l 694 694 l 694 115 l 579 115 l 579 0 l 115 0 l 115 115 l 0 115 l 0 694 z m 232 115 l 463 115 l 463 694 l 232 694 l 232 115 z m 463 926 l 463 1042 l 579 1042 l 579 926 l 463 926 z m 232 926 l 115 926 l 115 1042 l 232 1042 l 232 926 z "},"÷":{"ha":694,"x_min":0,"x_max":579,"o":"m 347 115 l 232 115 l 232 232 l 347 232 l 347 115 z m 579 347 l 0 347 l 0 463 l 579 463 l 579 347 z m 347 579 l 232 579 l 232 694 l 347 694 l 347 579 z "},"ø":{"ha":925,"x_min":0,"x_max":810,"o":"m 463 347 l 347 347 l 347 463 l 463 463 l 463 347 z m 0 694 l 115 694 l 115 810 l 579 810 l 579 694 l 694 694 l 694 810 l 810 810 l 810 694 l 694 694 l 694 579 l 810 579 l 810 115 l 694 115 l 694 0 l 232 0 l 232 115 l 115 115 l 115 0 l 0 0 l 0 115 l 115 115 l 115 232 l 0 232 l 0 694 z m 463 579 l 579 579 l 579 694 l 232 694 l 232 347 l 347 347 l 347 232 l 232 232 l 232 115 l 579 115 l 579 463 l 463 463 l 463 579 z "},"ù":{"ha":810,"x_min":0,"x_max":694,"o":"m 347 926 l 347 1042 l 232 1042 l 232 1157 l 347 1157 l 347 1042 l 463 1042 l 463 926 l 347 926 z m 115 115 l 0 115 l 0 810 l 232 810 l 232 115 l 463 115 l 463 810 l 694 810 l 694 0 l 579 0 l 579 115 l 463 115 l 463 0 l 115 0 l 115 115 z "},"ú":{"ha":810,"x_min":0,"x_max":694,"o":"m 232 1042 l 347 1042 l 347 1157 l 463 1157 l 463 1042 l 347 1042 l 347 926 l 232 926 l 232 1042 z m 115 115 l 0 115 l 0 810 l 232 810 l 232 115 l 463 115 l 463 810 l 694 810 l 694 0 l 579 0 l 579 115 l 463 115 l 463 0 l 115 0 l 115 115 z "},"û":{"ha":810,"x_min":0,"x_max":694,"o":"m 232 926 l 232 1042 l 347 1042 l 347 1157 l 463 1157 l 463 1042 l 579 1042 l 579 926 l 463 926 l 463 1042 l 347 1042 l 347 926 l 232 926 z m 115 115 l 0 115 l 0 810 l 232 810 l 232 115 l 463 115 l 463 810 l 694 810 l 694 0 l 579 0 l 579 115 l 463 115 l 463 0 l 115 0 l 115 115 z "},"ü":{"ha":810,"x_min":0,"x_max":694,"o":"m 115 115 l 0 115 l 0 810 l 232 810 l 232 115 l 463 115 l 463 810 l 694 810 l 694 0 l 579 0 l 579 115 l 463 115 l 463 0 l 115 0 l 115 115 z m 463 926 l 463 1042 l 579 1042 l 579 926 l 463 926 z m 232 926 l 115 926 l 115 1042 l 232 1042 l 232 926 z "},"ý":{"ha":810,"x_min":0,"x_max":694,"o":"m 232 1042 l 347 1042 l 347 1157 l 463 1157 l 463 1042 l 347 1042 l 347 926 l 232 926 l 232 1042 z m 115 347 l 0 347 l 0 810 l 232 810 l 232 347 l 347 347 l 347 232 l 463 232 l 463 810 l 694 810 l 694 232 l 579 232 l 579 0 l 463 0 l 463 -115 l 347 -115 l 347 -232 l 115 -232 l 115 -115 l 232 -115 l 232 0 l 347 0 l 347 115 l 232 115 l 232 232 l 115 232 l 115 347 z "},"þ":{"ha":694,"x_min":0,"x_max":579,"o":"m 0 1042 l 115 1042 l 115 1157 l 232 1157 l 232 810 l 463 810 l 463 694 l 579 694 l 579 463 l 579 232 l 463 232 l 463 115 l 232 115 l 232 0 l 232 -232 l 0 -232 l 0 1042 z m 347 232 l 347 463 l 347 694 l 232 694 l 232 463 l 232 232 l 347 232 z "},"ÿ":{"ha":810,"x_min":0,"x_max":694,"o":"m 463 926 l 463 1042 l 579 1042 l 579 926 l 463 926 z m 232 926 l 115 926 l 115 1042 l 232 1042 l 232 926 z m 115 347 l 0 347 l 0 810 l 232 810 l 232 347 l 347 347 l 347 232 l 463 232 l 463 810 l 694 810 l 694 232 l 579 232 l 579 0 l 463 0 l 463 -115 l 347 -115 l 347 -232 l 115 -232 l 115 -115 l 232 -115 l 232 0 l 347 0 l 347 115 l 232 115 l 232 232 l 115 232 l 115 347 z "},"Œ":{"ha":1042,"x_min":0,"x_max":926,"o":"m 115 926 l 232 926 l 232 1042 l 926 1042 l 926 926 l 579 926 l 579 810 l 694 810 l 694 579 l 926 579 l 926 463 l 694 463 l 694 115 l 926 115 l 926 0 l 115 0 l 115 115 l 0 115 l 0 810 l 115 810 l 115 926 z m 463 810 l 347 810 l 347 926 l 232 926 l 232 232 l 347 232 l 347 115 l 463 115 l 463 810 z "},"œ":{"ha":1042,"x_min":0,"x_max":926,"o":"m 0 694 l 115 694 l 115 810 l 463 810 l 463 694 l 579 694 l 579 810 l 810 810 l 810 694 l 926 694 l 926 347 l 579 347 l 579 115 l 810 115 l 810 232 l 926 232 l 926 115 l 810 115 l 810 0 l 579 0 l 579 115 l 463 115 l 463 0 l 115 0 l 115 115 l 0 115 l 0 694 z m 232 115 l 347 115 l 347 694 l 232 694 l 232 115 z m 579 463 l 694 463 l 694 694 l 579 694 l 579 463 z "},"Š":{"ha":810,"x_min":0,"x_max":694,"o":"m 232 1042 l 115 1042 l 115 1157 l 232 1157 l 232 1042 l 347 1042 l 347 1157 l 463 1157 l 463 1042 l 347 1042 l 347 926 l 579 926 l 579 810 l 694 810 l 694 694 l 463 694 l 463 810 l 232 810 l 232 694 l 347 694 l 347 579 l 463 579 l 463 463 l 579 463 l 579 347 l 694 347 l 694 115 l 579 115 l 579 0 l 115 0 l 115 115 l 0 115 l 0 232 l 232 232 l 232 115 l 463 115 l 463 232 l 347 232 l 347 347 l 232 347 l 232 463 l 115 463 l 115 579 l 0 579 l 0 810 l 115 810 l 115 926 l 232 926 l 232 1042 z "},"š":{"ha":810,"x_min":0,"x_max":694,"o":"m 0 694 l 115 694 l 115 810 l 579 810 l 579 694 l 232 694 l 232 579 l 347 579 l 347 463 l 579 463 l 579 347 l 694 347 l 694 115 l 579 115 l 579 0 l 115 0 l 115 115 l 0 115 l 0 232 l 115 232 l 115 115 l 463 115 l 463 232 l 347 232 l 347 347 l 115 347 l 115 463 l 0 463 l 0 694 z m 232 1042 l 115 1042 l 115 1157 l 232 1157 l 232 1042 l 347 1042 l 347 1157 l 463 1157 l 463 1042 l 347 1042 l 347 926 l 232 926 l 232 1042 z "},"Ÿ":{"ha":810,"x_min":0,"x_max":694,"o":"m 115 694 l 0 694 l 0 926 l 232 926 l 232 694 l 347 694 l 347 579 l 463 579 l 463 926 l 694 926 l 694 694 l 579 694 l 579 463 l 463 463 l 463 0 l 232 0 l 232 463 l 115 463 l 115 694 z m 579 1042 l 463 1042 l 463 1157 l 579 1157 l 579 1042 z m 232 1042 l 115 1042 l 115 1157 l 232 1157 l 232 1042 z "},"Ž":{"ha":694,"x_min":0,"x_max":579,"o":"m 232 1042 l 115 1042 l 115 1157 l 232 1157 l 232 1042 l 347 1042 l 347 1157 l 463 1157 l 463 1042 l 347 1042 l 347 926 l 579 926 l 579 694 l 463 694 l 463 463 l 347 463 l 347 347 l 232 347 l 232 115 l 463 115 l 463 232 l 579 232 l 579 0 l 0 0 l 0 347 l 115 347 l 115 463 l 232 463 l 232 579 l 347 579 l 347 810 l 115 810 l 115 694 l 0 694 l 0 926 l 232 926 l 232 1042 z "},"ž":{"ha":810,"x_min":0,"x_max":694,"o":"m 115 579 l 0 579 l 0 810 l 694 810 l 694 579 l 579 579 l 579 347 l 463 347 l 463 232 l 347 232 l 347 115 l 694 115 l 694 0 l 0 0 l 0 232 l 115 232 l 115 347 l 232 347 l 232 463 l 347 463 l 347 579 l 463 579 l 463 694 l 115 694 l 115 579 z m 347 1042 l 232 1042 l 232 1157 l 347 1157 l 347 1042 l 463 1042 l 463 1157 l 579 1157 l 579 1042 l 463 1042 l 463 926 l 347 926 l 347 1042 z "},"€":{"ha":810,"x_min":0,"x_max":694,"o":"m 115 926 l 232 926 l 232 1042 l 579 1042 l 579 926 l 694 926 l 694 810 l 579 810 l 579 926 l 347 926 l 347 694 l 579 694 l 579 579 l 347 579 l 347 463 l 579 463 l 579 347 l 347 347 l 347 115 l 579 115 l 579 232 l 694 232 l 694 115 l 579 115 l 579 0 l 232 0 l 232 115 l 115 115 l 115 347 l 0 347 l 0 463 l 115 463 l 115 579 l 0 579 l 0 694 l 115 694 l 115 926 z "}}}
